<svg x="0" y="0" width="60" height="51.79379165084079" filtersec="colorsb3067309146" class="image-svg-svg primary" style="overflow: visible;"><svg xmlns="http://www.w3.org/2000/svg" xmlns:xlink="http://www.w3.org/1999/xlink" viewBox="0.00042724609375 -0.0009915828704833984 112.63601684570312 97.23090362548828"><defs><linearGradient id="a51566ed-3713-4ee5-bb4b-2a614abca0a6" x1="25.24" y1="90.49" x2="90.15" y2="25.59" gradientTransform="matrix(1, 0, 0, -1, 0, 100)" gradientUnits="userSpaceOnUse"><stop offset="0" stop-color="#ffb2c2"></stop><stop offset="1" stop-color="#f85e8a"></stop></linearGradient></defs><title>7630</title><g id="e2efc689-eb1b-4001-a819-1986182a351d"><g id="a48bf052-ff9b-4e4b-bcbd-074908e8616b"><path d="M68,65.18c-4.33-3.06-7.38-1.45-10.49,2C53,72.24,47.09,77.89,40.61,71.92c-8-7.34,5.49-16.47,5.74-21.47S27.76,36.19,35.87,25.81c9.37-12,20.88,10.55,24.46,10.24,2.5-.22,9.82-18.31,20-11.74,9.23,6,1.06,15.35-4.07,23.3-1.74,2.68,2.48,6.61,7,9.74,8.18,5.72,12.24,6,17.32-1C107.36,47.07,118.25,24.56,89,7.59,62.58-7.8,13.65,3.84,8.9,34.3c-4.19,27,22.58,58.64,48,60,10.26.56,18.92-4.67,21.87-8.7C83.12,79.67,78.72,72.78,68,65.18Z" fill="url(#a51566ed-3713-4ee5-bb4b-2a614abca0a6)"></path><path d="M107.22,27.73C96,40.31,72.17,50,85,58.48c-.54-.35-1.1-.72-1.68-1.13-4.52-3.13-8.74-7.06-7-9.74,5.13-8,13.3-17.3,4.07-23.3-10.18-6.57-17.5,11.52-20,11.74-3.58.31-15.09-22.24-24.46-10.24a8.33,8.33,0,0,0-2,6C31.8,14.22,48.7,4.24,67.38,1.1,88-2.38,110.79,2.47,112.51,14.51,113.22,19.26,110.87,23.65,107.22,27.73Zm-73.33,4.4,0-.31c0,.16,0,.31,0,.46Z" fill="#ff8d27" opacity="0.5"></path><path d="M80.11,78.63c-1.76-6.35-9.91-9.32-37-.14a33.06,33.06,0,0,1-15.56,1.63C4.55,76.74-7.29,47,4.83,30.16A27.69,27.69,0,0,1,13.73,22c20.08-11.3,48.5,9.6,57.11,2.34l.06.22C65.68,28.05,62,35.9,60.33,36.05c-3.58.31-15.09-22.24-24.46-10.24C27.76,36.19,46.6,45.45,46.35,50.45S32.61,64.58,40.61,71.92c6.48,6,12.39.32,16.9-4.74,3.11-3.45,6.16-5.06,10.49-2C74.74,70,79,74.46,80.11,78.63Zm.16.66c0-.22-.1-.44-.16-.66C80.17,78.85,80.22,79.07,80.27,79.29Z" fill="#ff0098" opacity="0.6"></path><path d="M26.67,79.27a56.88,56.88,0,0,0,17.57,12c-4,2.25-8.34,2.67-13.19-.61C26.75,87.76,25.75,83.63,26.67,79.27ZM68,65.17c-4.33-3.06-7.38-1.45-10.49,2C53,72.24,47.09,77.89,40.61,71.92c-8-7.34,5.49-16.47,5.74-21.47V50.2c-1.14,3.68-5,8.19-10.74,14.13-4.13,4.24-7.87,9.75-8.94,14.92a56.88,56.88,0,0,0,17.57,12c12.07-6.8,21-30.35,31.28-19.33a26,26,0,0,0,2.33,2.25A43.25,43.25,0,0,0,68,65.17Z" fill="#6d59d1" opacity="0.5" style="isolation:isolate"></path><path d="M89.31,75.5c-1.86,1.88,8.37,15.86,12.55,11.69S91.18,73.62,89.31,75.5Zm-78.46-55c-.1,2.06-7.2,3.43-7-1.15S10.94,18.43,10.85,20.49Z" fill="#f757af"></path><path d="M94.37,71.91c-2.48,1.65,4.87,5.37,6.29,2.64S96,70.86,94.37,71.91ZM43.06,94c-2,3,2.59,4.87,2.87,1.21C46.09,93.07,44.19,92.26,43.06,94Z" fill="#ab8eeb"></path><path d="M12.6,17c-2.24,0-6.23-1.6-7.36-4.4-1-2.35,3.26-7.83,7.62,0C15.35,17.11,13.67,16.94,12.6,17Z" fill="#ffbd88"></path></g></g></svg></svg>